<svg width="32" height="32" viewBox="0 0 32 32" fill="none" xmlns="http://www.w3.org/2000/svg">
<path d="M22.8184 31C22.8184 31 22.8184 27.2167 22.8184 26C22.8184 24.95 23.0912 22.7333 21.9094 21.8333C24.4366 21.6167 26.4184 20.8667 28.273 19.3333C30.1275 17.8 31.0003 15.4833 31.0003 11.8333C31.0003 9.33333 30.5457 7.66667 29.1821 6C29.7094 4.7 29.8003 2.66667 29.1821 1C26.3457 1 23.7821 2.78333 22.8184 3.5C22.1094 3.33333 20.4003 2.66667 17.3639 2.66667C14.3275 2.66667 12.6184 3.33333 11.9094 3.5C10.9457 2.78333 8.38208 1 5.54572 1C4.92754 2.66667 5.01845 4.7 5.54572 6C4.18208 7.66667 3.72754 9.33333 3.72754 11.8333C3.72754 15.4833 4.60027 17.8 6.45481 19.3333C8.30936 20.8667 10.2912 21.6167 12.8184 21.8333C11.6366 22.7333 11.9094 24.95 11.9094 26C11.9094 27.2167 11.9094 31 11.9094 31" stroke="black" stroke-width="2" stroke-linecap="round" stroke-linejoin="round"/>
<path d="M11.9093 27.6668C9.3457 27.6668 6.7457 26.7335 5.20024 25.6835C3.67297 24.6335 3.21843 22.9168 1.00024 21.8335" stroke="black" stroke-width="2" stroke-linecap="round" stroke-linejoin="round"/>
</svg>
